<mxfile host="app.diagrams.net" agent="Mozilla/5.0 (Windows NT 10.0; Win64; x64) AppleWebKit/537.36 (KHTML, like Gecko) Chrome/130.0.0.0 Safari/537.36 Edg/130.0.0.0" version="24.8.3">
  <diagram id="R2lEEEUBdFMjLlhIrx00" name="Page-1">
    <mxGraphModel dx="925" dy="535" grid="1" gridSize="10" guides="1" tooltips="1" connect="1" arrows="1" fold="1" page="1" pageScale="1" pageWidth="850" pageHeight="1100" math="0" shadow="0" extFonts="Permanent Marker^https://fonts.googleapis.com/css?family=Permanent+Marker">
      <root>
        <mxCell id="0" />
        <mxCell id="1" parent="0" />
        <mxCell id="6QG8E82MpiIFCZu1OyY_-2" value="Clinics" style="verticalLabelPosition=middle;verticalAlign=middle;html=1;shape=mxgraph.basic.rect;fillColor2=none;strokeWidth=1;size=20;indent=5;labelPosition=center;align=center;" vertex="1" parent="1">
          <mxGeometry x="160" y="120" width="120" height="60" as="geometry" />
        </mxCell>
        <mxCell id="6QG8E82MpiIFCZu1OyY_-3" value="Admin" style="verticalLabelPosition=middle;verticalAlign=middle;html=1;shape=mxgraph.basic.rect;fillColor2=none;strokeWidth=1;size=20;indent=5;labelPosition=center;align=center;" vertex="1" parent="1">
          <mxGeometry x="630" y="120" width="120" height="60" as="geometry" />
        </mxCell>
        <mxCell id="6QG8E82MpiIFCZu1OyY_-4" value="User" style="verticalLabelPosition=middle;verticalAlign=middle;html=1;shape=mxgraph.basic.rect;fillColor2=none;strokeWidth=1;size=20;indent=5;labelPosition=center;align=center;" vertex="1" parent="1">
          <mxGeometry x="110" y="390" width="120" height="60" as="geometry" />
        </mxCell>
        <mxCell id="6QG8E82MpiIFCZu1OyY_-8" value="Pet" style="verticalLabelPosition=middle;verticalAlign=middle;html=1;shape=mxgraph.basic.rect;fillColor2=none;strokeWidth=1;size=20;indent=5;labelPosition=center;align=center;" vertex="1" parent="1">
          <mxGeometry x="540" y="450" width="120" height="60" as="geometry" />
        </mxCell>
        <mxCell id="6QG8E82MpiIFCZu1OyY_-47" style="rounded=0;orthogonalLoop=1;jettySize=auto;html=1;exitX=1;exitY=0.5;exitDx=0;exitDy=0;entryX=0;entryY=0.5;entryDx=0;entryDy=0;endArrow=none;endFill=0;" edge="1" parent="1" source="6QG8E82MpiIFCZu1OyY_-10" target="6QG8E82MpiIFCZu1OyY_-46">
          <mxGeometry relative="1" as="geometry" />
        </mxCell>
        <mxCell id="6QG8E82MpiIFCZu1OyY_-10" value="Service" style="rounded=0;whiteSpace=wrap;html=1;" vertex="1" parent="1">
          <mxGeometry x="400" y="280" width="120" height="60" as="geometry" />
        </mxCell>
        <mxCell id="6QG8E82MpiIFCZu1OyY_-13" value="Name" style="ellipse;whiteSpace=wrap;html=1;" vertex="1" parent="1">
          <mxGeometry x="10" y="370" width="80" height="50" as="geometry" />
        </mxCell>
        <mxCell id="6QG8E82MpiIFCZu1OyY_-14" value="Age" style="ellipse;whiteSpace=wrap;html=1;" vertex="1" parent="1">
          <mxGeometry y="440" width="80" height="50" as="geometry" />
        </mxCell>
        <mxCell id="6QG8E82MpiIFCZu1OyY_-16" value="PhoneNumber" style="ellipse;whiteSpace=wrap;html=1;" vertex="1" parent="1">
          <mxGeometry x="70" y="500" width="80" height="50" as="geometry" />
        </mxCell>
        <mxCell id="6QG8E82MpiIFCZu1OyY_-17" value="Email" style="ellipse;whiteSpace=wrap;html=1;" vertex="1" parent="1">
          <mxGeometry x="260" y="480" width="80" height="50" as="geometry" />
        </mxCell>
        <mxCell id="6QG8E82MpiIFCZu1OyY_-19" value="Address" style="ellipse;whiteSpace=wrap;html=1;" vertex="1" parent="1">
          <mxGeometry x="170" y="500" width="80" height="50" as="geometry" />
        </mxCell>
        <mxCell id="6QG8E82MpiIFCZu1OyY_-37" style="rounded=0;orthogonalLoop=1;jettySize=auto;html=1;exitX=0.5;exitY=1;exitDx=0;exitDy=0;entryX=0.12;entryY=-0.044;entryDx=0;entryDy=0;entryPerimeter=0;endArrow=none;endFill=0;" edge="1" parent="1" source="6QG8E82MpiIFCZu1OyY_-20" target="6QG8E82MpiIFCZu1OyY_-2">
          <mxGeometry relative="1" as="geometry">
            <mxPoint x="150" y="90" as="targetPoint" />
          </mxGeometry>
        </mxCell>
        <mxCell id="6QG8E82MpiIFCZu1OyY_-20" value="Name" style="ellipse;whiteSpace=wrap;html=1;" vertex="1" parent="1">
          <mxGeometry x="60" y="30" width="80" height="50" as="geometry" />
        </mxCell>
        <mxCell id="6QG8E82MpiIFCZu1OyY_-38" style="rounded=0;orthogonalLoop=1;jettySize=auto;html=1;exitX=0.5;exitY=1;exitDx=0;exitDy=0;entryX=0.531;entryY=0.022;entryDx=0;entryDy=0;entryPerimeter=0;endArrow=none;endFill=0;" edge="1" parent="1" source="6QG8E82MpiIFCZu1OyY_-21" target="6QG8E82MpiIFCZu1OyY_-2">
          <mxGeometry relative="1" as="geometry">
            <mxPoint x="200" y="100" as="targetPoint" />
          </mxGeometry>
        </mxCell>
        <mxCell id="6QG8E82MpiIFCZu1OyY_-21" value="PhoneNumber" style="ellipse;whiteSpace=wrap;html=1;" vertex="1" parent="1">
          <mxGeometry x="150" y="10" width="80" height="50" as="geometry" />
        </mxCell>
        <mxCell id="6QG8E82MpiIFCZu1OyY_-22" value="Email" style="ellipse;whiteSpace=wrap;html=1;" vertex="1" parent="1">
          <mxGeometry x="260" y="10" width="80" height="50" as="geometry" />
        </mxCell>
        <mxCell id="6QG8E82MpiIFCZu1OyY_-23" value="Address" style="ellipse;whiteSpace=wrap;html=1;" vertex="1" parent="1">
          <mxGeometry x="330" y="50" width="80" height="50" as="geometry" />
        </mxCell>
        <mxCell id="6QG8E82MpiIFCZu1OyY_-35" style="rounded=0;orthogonalLoop=1;jettySize=auto;html=1;exitX=1;exitY=0.5;exitDx=0;exitDy=0;entryX=0;entryY=0.5;entryDx=0;entryDy=0;endArrow=none;endFill=0;" edge="1" parent="1" source="6QG8E82MpiIFCZu1OyY_-25" target="6QG8E82MpiIFCZu1OyY_-10">
          <mxGeometry relative="1" as="geometry" />
        </mxCell>
        <mxCell id="6QG8E82MpiIFCZu1OyY_-25" value="Provide" style="rhombus;whiteSpace=wrap;html=1;" vertex="1" parent="1">
          <mxGeometry x="175" y="220" width="90" height="70" as="geometry" />
        </mxCell>
        <mxCell id="6QG8E82MpiIFCZu1OyY_-32" style="rounded=0;orthogonalLoop=1;jettySize=auto;html=1;exitX=1;exitY=0.5;exitDx=0;exitDy=0;entryX=0;entryY=0.5;entryDx=0;entryDy=0;startArrow=none;startFill=0;endArrow=none;endFill=0;" edge="1" parent="1" source="6QG8E82MpiIFCZu1OyY_-26" target="6QG8E82MpiIFCZu1OyY_-30">
          <mxGeometry relative="1" as="geometry" />
        </mxCell>
        <mxCell id="6QG8E82MpiIFCZu1OyY_-33" style="rounded=0;orthogonalLoop=1;jettySize=auto;html=1;exitX=0.5;exitY=1;exitDx=0;exitDy=0;entryX=0.5;entryY=0;entryDx=0;entryDy=0;endArrow=none;endFill=0;" edge="1" parent="1" source="6QG8E82MpiIFCZu1OyY_-26" target="6QG8E82MpiIFCZu1OyY_-29">
          <mxGeometry relative="1" as="geometry" />
        </mxCell>
        <mxCell id="6QG8E82MpiIFCZu1OyY_-26" value="Veterinary" style="ellipse;whiteSpace=wrap;html=1;" vertex="1" parent="1">
          <mxGeometry x="340" y="125" width="80" height="50" as="geometry" />
        </mxCell>
        <mxCell id="6QG8E82MpiIFCZu1OyY_-29" value="VetrinaryName" style="ellipse;whiteSpace=wrap;html=1;" vertex="1" parent="1">
          <mxGeometry x="360" y="200" width="80" height="50" as="geometry" />
        </mxCell>
        <mxCell id="6QG8E82MpiIFCZu1OyY_-30" value="Bio" style="ellipse;whiteSpace=wrap;html=1;" vertex="1" parent="1">
          <mxGeometry x="430" y="130" width="80" height="50" as="geometry" />
        </mxCell>
        <mxCell id="6QG8E82MpiIFCZu1OyY_-31" value="ClinicID" style="ellipse;whiteSpace=wrap;html=1;" vertex="1" parent="1">
          <mxGeometry x="40" y="110" width="80" height="50" as="geometry" />
        </mxCell>
        <mxCell id="6QG8E82MpiIFCZu1OyY_-34" style="rounded=0;orthogonalLoop=1;jettySize=auto;html=1;exitX=0.5;exitY=0;exitDx=0;exitDy=0;entryX=0.497;entryY=0.956;entryDx=0;entryDy=0;entryPerimeter=0;endArrow=none;endFill=0;" edge="1" parent="1" source="6QG8E82MpiIFCZu1OyY_-25" target="6QG8E82MpiIFCZu1OyY_-2">
          <mxGeometry relative="1" as="geometry" />
        </mxCell>
        <mxCell id="6QG8E82MpiIFCZu1OyY_-36" style="rounded=0;orthogonalLoop=1;jettySize=auto;html=1;exitX=1;exitY=0.5;exitDx=0;exitDy=0;entryX=0.025;entryY=0.567;entryDx=0;entryDy=0;entryPerimeter=0;endArrow=none;endFill=0;" edge="1" parent="1" source="6QG8E82MpiIFCZu1OyY_-31" target="6QG8E82MpiIFCZu1OyY_-2">
          <mxGeometry relative="1" as="geometry" />
        </mxCell>
        <mxCell id="6QG8E82MpiIFCZu1OyY_-39" style="rounded=0;orthogonalLoop=1;jettySize=auto;html=1;exitX=0.5;exitY=1;exitDx=0;exitDy=0;entryX=0.831;entryY=0.022;entryDx=0;entryDy=0;entryPerimeter=0;endArrow=none;endFill=0;" edge="1" parent="1" source="6QG8E82MpiIFCZu1OyY_-22" target="6QG8E82MpiIFCZu1OyY_-2">
          <mxGeometry relative="1" as="geometry" />
        </mxCell>
        <mxCell id="6QG8E82MpiIFCZu1OyY_-40" style="rounded=0;orthogonalLoop=1;jettySize=auto;html=1;exitX=0.5;exitY=1;exitDx=0;exitDy=0;endArrow=none;endFill=0;" edge="1" parent="1" source="6QG8E82MpiIFCZu1OyY_-23">
          <mxGeometry relative="1" as="geometry">
            <mxPoint x="280" y="130" as="targetPoint" />
          </mxGeometry>
        </mxCell>
        <mxCell id="6QG8E82MpiIFCZu1OyY_-41" style="rounded=0;orthogonalLoop=1;jettySize=auto;html=1;exitX=0;exitY=0.5;exitDx=0;exitDy=0;entryX=1.014;entryY=0.5;entryDx=0;entryDy=0;entryPerimeter=0;endArrow=none;endFill=0;" edge="1" parent="1" source="6QG8E82MpiIFCZu1OyY_-26" target="6QG8E82MpiIFCZu1OyY_-2">
          <mxGeometry relative="1" as="geometry" />
        </mxCell>
        <mxCell id="6QG8E82MpiIFCZu1OyY_-44" style="rounded=0;orthogonalLoop=1;jettySize=auto;html=1;exitX=1;exitY=0.5;exitDx=0;exitDy=0;entryX=0.5;entryY=1;entryDx=0;entryDy=0;endArrow=none;endFill=0;" edge="1" parent="1" source="6QG8E82MpiIFCZu1OyY_-43" target="6QG8E82MpiIFCZu1OyY_-10">
          <mxGeometry relative="1" as="geometry" />
        </mxCell>
        <mxCell id="6QG8E82MpiIFCZu1OyY_-45" style="rounded=0;orthogonalLoop=1;jettySize=auto;html=1;exitX=0;exitY=0.5;exitDx=0;exitDy=0;endArrow=none;endFill=0;" edge="1" parent="1" source="6QG8E82MpiIFCZu1OyY_-43" target="6QG8E82MpiIFCZu1OyY_-4">
          <mxGeometry relative="1" as="geometry" />
        </mxCell>
        <mxCell id="6QG8E82MpiIFCZu1OyY_-43" value="Servie" style="rhombus;whiteSpace=wrap;html=1;" vertex="1" parent="1">
          <mxGeometry x="290" y="360" width="90" height="70" as="geometry" />
        </mxCell>
        <mxCell id="6QG8E82MpiIFCZu1OyY_-46" value="ServiceType" style="ellipse;whiteSpace=wrap;html=1;" vertex="1" parent="1">
          <mxGeometry x="570" y="270" width="80" height="50" as="geometry" />
        </mxCell>
        <mxCell id="6QG8E82MpiIFCZu1OyY_-48" style="rounded=0;orthogonalLoop=1;jettySize=auto;html=1;exitX=1;exitY=0.5;exitDx=0;exitDy=0;entryX=-0.008;entryY=0.422;entryDx=0;entryDy=0;entryPerimeter=0;endArrow=none;endFill=0;" edge="1" parent="1" source="6QG8E82MpiIFCZu1OyY_-13" target="6QG8E82MpiIFCZu1OyY_-4">
          <mxGeometry relative="1" as="geometry" />
        </mxCell>
        <mxCell id="6QG8E82MpiIFCZu1OyY_-49" style="rounded=0;orthogonalLoop=1;jettySize=auto;html=1;exitX=1;exitY=0.5;exitDx=0;exitDy=0;entryX=-0.003;entryY=0.989;entryDx=0;entryDy=0;entryPerimeter=0;endArrow=none;endFill=0;" edge="1" parent="1" source="6QG8E82MpiIFCZu1OyY_-14" target="6QG8E82MpiIFCZu1OyY_-4">
          <mxGeometry relative="1" as="geometry" />
        </mxCell>
        <mxCell id="6QG8E82MpiIFCZu1OyY_-50" style="rounded=0;orthogonalLoop=1;jettySize=auto;html=1;exitX=0.5;exitY=0;exitDx=0;exitDy=0;entryX=0.181;entryY=1.022;entryDx=0;entryDy=0;entryPerimeter=0;endArrow=none;endFill=0;" edge="1" parent="1" source="6QG8E82MpiIFCZu1OyY_-16" target="6QG8E82MpiIFCZu1OyY_-4">
          <mxGeometry relative="1" as="geometry" />
        </mxCell>
        <mxCell id="6QG8E82MpiIFCZu1OyY_-51" style="rounded=0;orthogonalLoop=1;jettySize=auto;html=1;exitX=0.5;exitY=0;exitDx=0;exitDy=0;entryX=0.453;entryY=0.989;entryDx=0;entryDy=0;entryPerimeter=0;endArrow=none;endFill=0;" edge="1" parent="1" source="6QG8E82MpiIFCZu1OyY_-19" target="6QG8E82MpiIFCZu1OyY_-4">
          <mxGeometry relative="1" as="geometry" />
        </mxCell>
        <mxCell id="6QG8E82MpiIFCZu1OyY_-52" style="rounded=0;orthogonalLoop=1;jettySize=auto;html=1;exitX=0;exitY=0;exitDx=0;exitDy=0;endArrow=none;endFill=0;" edge="1" parent="1" source="6QG8E82MpiIFCZu1OyY_-17">
          <mxGeometry relative="1" as="geometry">
            <mxPoint x="230" y="450" as="targetPoint" />
          </mxGeometry>
        </mxCell>
      </root>
    </mxGraphModel>
  </diagram>
</mxfile>
